<svg fill="none" height="28" viewBox="0 0 36 28" width="36" xmlns="http://www.w3.org/2000/svg"><path d="m32.125 0c-1.5.0625-9 .5625-13.6875 3.0625-.25.125-.6875.125-.9375 0-4.6875-2.5-12.1875-3-13.6875-3.0625-2.125 0-3.8125 1.6875-3.8125 3.75v18.5c0 2 1.5625 3.5625 3.5625 3.6875 2.1875.125 7.625.5 11.375 1.875.375.125.6875.1875 1 .1875h4c.375 0 .6875-.0625 1.0625-.1875 3.75-1.375 9.1875-1.75 11.375-1.875 2-.125 3.5625-1.6875 3.5625-3.6875v-18.5c.0625-2.0625-1.6875-3.75-3.8125-3.75zm-15.125 25.0625c0 .5625-.5 1-1 1-.125 0-.1875-.0625-.3125-.0625-3.9375-1.5-9.3125-1.9375-12-2.0625-.9375-.0625-1.6875-.75-1.6875-1.6875v-18.5c0-.9375.8125-1.6875 1.8125-1.6875 1.1875 0 7.625.4375 12 2.375.6875.3125 1.125 1 1.125 1.75l.0625 6.25zm17-2.8125c0 .9375-.8125 1.625-1.75 1.6875-2.6875.125-8.0625.5625-12 2.0625-.125 0-.1875.0625-.3125.0625-.5 0-1-.4375-1-1v-12.625l.0625-6.25c0-.75.4375-1.4375 1.125-1.75 4.375-1.9375 10.8125-2.375 12-2.375 1 0 1.8125.75 1.8125 1.6875v18.5z" fill="#14bef0"/></svg>