<svg fill="none" height="18" viewBox="0 0 18 18" width="18" xmlns="http://www.w3.org/2000/svg" xmlns:xlink="http://www.w3.org/1999/xlink"><clipPath id="a"><path d="m0 0h18v18h-18z"/></clipPath><g clip-path="url(#a)" clip-rule="evenodd" fill="#666" fill-rule="evenodd"><path d="m8.83887 8.13171-8.131717-8.13171-.70710645.707107 8.13171345 8.131713-8.13176 8.13178.707107.7071 8.131763-8.13177 8.13173 8.13177.7071-.7071-8.13173-8.13178 8.13173-8.131695-.7071-.7071064z"/><path d="m.530376-.176777c.097631-.097631.255923-.097631.353554 0l7.95494 7.954937 7.95493-7.954919c.0469-.046884.1105-.073223.1768-.073222.0663 0 .1299.026339.1768.073224l.7071.707106c.0976.097631.0976.255922 0 .353553l-7.95498 7.954918 7.95498 7.95498c.0976.0977.0976.2559 0 .3536l-.7071.7071c-.0469.0469-.1105.0732-.1768.0732s-.1299-.0263-.1768-.0732l-7.95493-7.95502-7.954986 7.95502c-.097631.0976-.255922.0976-.353553 0l-.707107-.7071c-.046884-.0469-.073224-.1105-.073224-.1768s.026339-.1299.073223-.1768l7.954987-7.95498-7.95494-7.954936c-.097631-.097631-.097631-.255923 0-.353554zm.176777.53033-.353553.353554 7.95494 7.954933c.09763.09764.09763.25593 0 .35356l-7.954986 7.955.353552.3535 7.954984-7.95495c.04689-.04688.11048-.07322.17678-.07322s.12989.02634.17678.07322l7.95495 7.95495.3535-.3535-7.95491-7.955c-.09763-.09764-.09763-.25593 0-.35356l7.95491-7.954917-.3535-.353551-7.95495 7.954918c-.09763.09763-.25593.09763-.35356 0z"/></g></svg>