<svg fill="none" height="32" viewBox="0 0 24 32" width="24" xmlns="http://www.w3.org/2000/svg"><path d="m23.0625 6.125-5.1875-5.25c-.5625-.5625-1.375-.875-2.125-.875h-12.75c-1.6875 0-3 1.375-3 3v26c0 1.6875 1.3125 3 3 3h18c1.625 0 3-1.3125 3-3v-20.75c0-.75-.375-1.5625-.9375-2.125zm-1.375 1.4375c.125.125.1875.3125.25.4375h-5.9375v-5.9375c.125.0625.3125.125.4375.25zm-.6875 22.4375h-18c-.5625 0-1-.4375-1-1v-26c0-.5.4375-1 1-1h11v6.5c0 .875.625 1.5 1.5 1.5h6.5v19c0 .5625-.5 1-1 1zm-3-15.25c0-.375-.375-.75-.75-.75h-10.5c-.4375 0-.75.375-.75.75v.5c0 .4375.3125.75.75.75h10.5c.375 0 .75-.3125.75-.75zm0 4c0-.375-.375-.75-.75-.75h-10.5c-.4375 0-.75.375-.75.75v.5c0 .4375.3125.75.75.75h10.5c.375 0 .75-.3125.75-.75zm0 4c0-.375-.375-.75-.75-.75h-10.5c-.4375 0-.75.375-.75.75v.5c0 .4375.3125.75.75.75h10.5c.375 0 .75-.3125.75-.75z" fill="#14bef0"/></svg>