<svg fill="none" height="32" viewBox="0 0 32 32" width="32" xmlns="http://www.w3.org/2000/svg"><g fill="#fff"><path d="m11.5751.00000224c1.3348 0 2.5838.36968476 3.6497 1.01200776.9718.5856 1.7909 1.39855 2.3835 2.36501.3203-.11934.6506-.21597.9891-.28797.4797-.10199.9748-.15573 1.4796-.15573 1.5307 0 2.9488.48654 4.1073 1.31319 1.1087.79117 1.9786 1.89367 2.4808 3.17906 1.228.23297 2.3107.87308 3.1014 1.77404.8459.96399 1.3586 2.22469 1.3586 3.60319 0 1.5121-.6146 2.881-1.6082 3.872-.9937.9909-2.3664 1.6038-3.8826 1.6038h-20.14349c-1.51619 0-2.88893-.6129-3.88257-1.6038-.993613-.991-1.60824-2.3599-1.60824-3.872 0-1.4231.546823-2.7209 1.44283-3.69605.79625-.86664 1.86703-1.47695 3.07352-1.69299-.0069-.12906-.01043-.25049-.01043-.36398 0-1.9467.79129-3.70915 2.07053-4.98492 1.27927-1.27576 3.04659-2.06486 4.99865-2.06486zm3.1326 1.86746776c-.9137-.55059-1.9856-.86747-3.1326-.86747-1.67523 0-3.19189.67715-4.28966 1.7719-1.09774 1.09476-1.77677 2.60723-1.77677 4.27788 0 .13551.00346.25832.01017.3688.00703.11627.0186.2395.03432.36893l.06223.51215-.5166.04449c-1.15437.09946-2.1827.63256-2.91953 1.4345-.7306.79515-1.1765 1.85675-1.1765 3.02415 0 1.236.50236 2.355 1.31447 3.1649.81215.8099 1.93421 1.3109 3.17358 1.3109h20.14349c1.2394 0 2.3615-.501 3.1736-1.3109s1.3145-1.9289 1.3145-3.1649c0-1.1299-.4181-2.1608-1.108-2.94694-.6998-.79753-1.6784-1.34515-2.7835-1.49107l-.3092-.04082-.1001-.29316c-.4125-1.20795-1.197-2.24392-2.2171-2.9718-.993-.70861-2.2108-1.12569-3.5275-1.12569-.439 0-.8644.04565-1.272.13231-.4232.09001-.8283.22303-1.2105.39405l-.4278.19148-.2185-.41412c-.5162-.97852-1.2939-1.79914-2.2405-2.36956z"/><path d="m5.18848 25.6392c0 .2761.22448.5.50137.5s.50137-.2239.50137-.5v-3.0525c0-.2761-.22448-.5-.50137-.5s-.50137.2239-.50137.5z"/><path d="m15.0605 25.6392c0 .2761.2245.5.5014.5s.5014-.2239.5014-.5v-3.0525c0-.2761-.2245-.5-.5014-.5s-.5014.2239-.5014.5z"/><path d="m24.9341 25.6392c0 .2761.2245.5.5014.5.2768 0 .5013-.2239.5013-.5v-3.0525c0-.2761-.2245-.5-.5013-.5-.2769 0-.5014.2239-.5014.5z"/><path d="m10.1245 31.5c0 .2761.2245.5.5014.5s.5014-.2239.5014-.5v-3.0525c0-.2762-.2245-.5001-.5014-.5001s-.5014.2239-.5014.5001z"/><path d="m19.998 31.5c0 .2761.2245.5.5014.5s.5014-.2239.5014-.5v-3.0525c0-.2762-.2245-.5001-.5014-.5001s-.5014.2239-.5014.5001z"/></g></svg>